<?xml version="1.0" encoding="us-ascii" standalone="no"?><svg xmlns="http://www.w3.org/2000/svg" xmlns:xlink="http://www.w3.org/1999/xlink" contentStyleType="text/css" height="315px" preserveAspectRatio="none" style="width:813px;height:315px;background:#FFFFFF;" version="1.1" viewBox="0 0 813 315" width="813px" zoomAndPan="magnify"><defs><filter height="300%" id="f1ergkl7il9kp0" width="300%" x="-1" y="-1"><feGaussianBlur result="blurOut" stdDeviation="2.0"/><feColorMatrix in="blurOut" result="blurOut2" type="matrix" values="0 0 0 0 0 0 0 0 0 0 0 0 0 0 0 0 0 0 .4 0"/><feOffset dx="4.0" dy="4.0" in="blurOut2" result="blurOut3"/><feBlend in="SourceGraphic" in2="blurOut3" mode="normal"/></filter></defs><g><!--entity network--><g id="elem_network"><rect fill="#90EE90" filter="url(#f1ergkl7il9kp0)" height="58.1358" rx="5" ry="5" style="stroke:#181818;stroke-width:0.5;" width="124" x="439.5" y="7"/><text fill="#000000" font-family="sans-serif" font-size="14" lengthAdjust="spacing" textLength="56" x="449.5" y="31.9659">Network</text><text fill="#000000" font-family="sans-serif" font-size="14" font-style="italic" lengthAdjust="spacing" textLength="104" x="449.5" y="51.0339">titracka.network</text></g><!--entity titracka--><g id="elem_titracka"><rect fill="#FFD700" filter="url(#f1ergkl7il9kp0)" height="58.1358" rx="5" ry="5" style="stroke:#181818;stroke-width:0.5;" width="133" x="233" y="125.14"/><text fill="#000000" font-family="sans-serif" font-size="14" font-weight="bold" lengthAdjust="spacing" textLength="53.5" x="243" y="150.1059">titracka</text><text fill="#000000" font-family="sans-serif" font-size="14" font-style="italic" lengthAdjust="spacing" textLength="113" x="243" y="169.1739">titracka.container</text></g><!--entity postgres--><g id="elem_postgres"><rect fill="#FFD700" filter="url(#f1ergkl7il9kp0)" height="58.1358" rx="5" ry="5" style="stroke:#181818;stroke-width:0.5;" width="191" x="406" y="125.14"/><text fill="#000000" font-family="sans-serif" font-size="14" font-weight="bold" lengthAdjust="spacing" textLength="121.4375" x="416" y="150.1059">titracka-postgres</text><text fill="#000000" font-family="sans-serif" font-size="14" font-style="italic" lengthAdjust="spacing" textLength="171" x="416" y="169.1739">titracka-postgres.container</text></g><!--entity redis--><g id="elem_redis"><rect fill="#FFD700" filter="url(#f1ergkl7il9kp0)" height="58.1358" rx="5" ry="5" style="stroke:#181818;stroke-width:0.5;" width="168" x="631.5" y="125.14"/><text fill="#000000" font-family="sans-serif" font-size="14" font-weight="bold" lengthAdjust="spacing" textLength="95.125" x="641.5" y="150.1059">titracka-redis</text><text fill="#000000" font-family="sans-serif" font-size="14" font-style="italic" lengthAdjust="spacing" textLength="148" x="641.5" y="169.1739">titracka-redis.container</text></g><!--entity v_postgres--><g id="elem_v_postgres"><rect fill="#F1F1F1" filter="url(#f1ergkl7il9kp0)" height="58.1358" rx="35" ry="35" style="stroke:#181818;stroke-width:0.5;" width="185" x="412" y="243.27"/><text fill="#000000" font-family="sans-serif" font-size="14" font-weight="bold" lengthAdjust="spacing" textLength="121.4375" x="422" y="268.2359">titracka-postgres</text><text fill="#000000" font-family="sans-serif" font-size="14" font-style="italic" lengthAdjust="spacing" textLength="157" x="422" y="287.3039">titracka-postgres.volume</text><text fill="#000000" font-family="sans-serif" font-size="14" lengthAdjust="spacing" textLength="8" x="579" y="287.3039">&#160;&#160;</text></g><!--entity v_redis--><g id="elem_v_redis"><rect fill="#F1F1F1" filter="url(#f1ergkl7il9kp0)" height="58.1358" rx="35" ry="35" style="stroke:#181818;stroke-width:0.5;" width="162" x="634.5" y="243.27"/><text fill="#000000" font-family="sans-serif" font-size="14" font-weight="bold" lengthAdjust="spacing" textLength="95.125" x="644.5" y="268.2359">titracka-redis</text><text fill="#000000" font-family="sans-serif" font-size="14" font-style="italic" lengthAdjust="spacing" textLength="134" x="644.5" y="287.3039">titracka-redis.volume</text><text fill="#000000" font-family="sans-serif" font-size="14" lengthAdjust="spacing" textLength="8" x="778.5" y="287.3039">&#160;&#160;</text></g><!--entity v_storage--><g id="elem_v_storage"><rect fill="#F1F1F1" filter="url(#f1ergkl7il9kp0)" height="58.1358" rx="35" ry="35" style="stroke:#181818;stroke-width:0.5;" width="179" x="7" y="243.27"/><text fill="#000000" font-family="sans-serif" font-size="14" font-weight="bold" lengthAdjust="spacing" textLength="113" x="17" y="268.2359">titracka-storage</text><text fill="#000000" font-family="sans-serif" font-size="14" font-style="italic" lengthAdjust="spacing" textLength="151" x="17" y="287.3039">titracka-storage.volume</text><text fill="#000000" font-family="sans-serif" font-size="14" lengthAdjust="spacing" textLength="8" x="168" y="287.3039">&#160;&#160;</text></g><!--entity v_tmp--><g id="elem_v_tmp"><rect fill="#F1F1F1" filter="url(#f1ergkl7il9kp0)" height="58.1358" rx="35" ry="35" style="stroke:#181818;stroke-width:0.5;" width="156" x="221.5" y="243.27"/><text fill="#000000" font-family="sans-serif" font-size="14" font-weight="bold" lengthAdjust="spacing" textLength="87.25" x="231.5" y="268.2359">titracka-tmp</text><text fill="#000000" font-family="sans-serif" font-size="14" font-style="italic" lengthAdjust="spacing" textLength="128" x="231.5" y="287.3039">titracka-tmp.volume</text><text fill="#000000" font-family="sans-serif" font-size="14" lengthAdjust="spacing" textLength="8" x="359.5" y="287.3039">&#160;&#160;</text></g><!--entity env--><g id="elem_env"><path d="M598,21.54 L598,50.6079 A5,5 0 0 0 603,55.6079 L724,55.6079 A5,5 0 0 0 729,50.6079 L729,26.54 L719,16.54 L603,16.54 A5,5 0 0 0 598,21.54 " fill="#ADD8E6" filter="url(#f1ergkl7il9kp0)" style="stroke:#181818;stroke-width:0.5;"/><path d="M719,16.54 L719,21.54 A5,5 0 0 0 724,26.54 L729,26.54 " fill="#ADD8E6" style="stroke:#181818;stroke-width:0.5;"/><text fill="#000000" font-family="sans-serif" font-size="14" lengthAdjust="spacing" textLength="111" x="608" y="41.5059">./env.production</text></g><!--reverse link network to titracka--><g id="link_network_titracka"><path codeLine="48" d="M447.4953,68.122 C416.1853,86.122 380.25,106.78 348.98,124.76 " fill="none" id="network-backto-titracka" style="stroke:#181818;stroke-width:1.0;"/><rect fill="#FFFFFF" height="10" style="stroke:#181818;stroke-width:1.5;" width="10" x="446.83" y="60.63"/></g><!--reverse link network to postgres--><g id="link_network_postgres"><path codeLine="49" d="M501.5,70.48 C501.5,88.48 501.5,106.67 501.5,124.69 " fill="none" id="network-backto-postgres" style="stroke:#181818;stroke-width:1.0;"/><rect fill="#FFFFFF" height="10" style="stroke:#181818;stroke-width:1.5;" width="10" x="496.5" y="60.48"/></g><!--reverse link network to redis--><g id="link_network_redis"><path codeLine="50" d="M558.5146,68.0148 C591.6846,86.0148 629.95,106.78 663.08,124.76 " fill="none" id="network-backto-redis" style="stroke:#181818;stroke-width:1.0;"/><rect fill="#FFFFFF" height="10" style="stroke:#181818;stroke-width:1.5;" width="10" x="549.12" y="60.63"/></g><!--link titracka to v_storage--><g id="link_titracka_v_storage"><path codeLine="52" d="M249.58,183.77 C218.12,201.76 181.9903,222.4377 150.5703,240.4077 " fill="none" id="titracka-to-v_storage" style="stroke:#181818;stroke-width:1.0;"/><rect fill="#FFFFFF" height="10" style="stroke:#181818;stroke-width:1.5;" width="10" x="141.23" y="237.89"/></g><!--link titracka to v_tmp--><g id="link_titracka_v_tmp"><path codeLine="53" d="M299.5,183.62 C299.5,201.61 299.5,219.81 299.5,237.82 " fill="none" id="titracka-to-v_tmp" style="stroke:#181818;stroke-width:1.0;"/><rect fill="#FFFFFF" height="10" style="stroke:#181818;stroke-width:1.5;" width="10" x="294.5" y="237.82"/></g><!--link postgres to v_postgres--><g id="link_postgres_v_postgres"><path codeLine="55" d="M502.23,183.62 C502.7,201.61 503.1723,219.8116 503.6323,237.8216 " fill="none" id="postgres-to-v_postgres" style="stroke:#181818;stroke-width:1.0;"/><rect fill="#FFFFFF" height="10" style="stroke:#181818;stroke-width:1.5;" width="10" x="498.76" y="237.82"/></g><!--link redis to v_redis--><g id="link_redis_v_redis"><path codeLine="56" d="M715.5,183.62 C715.5,201.61 715.5,219.81 715.5,237.82 " fill="none" id="redis-to-v_redis" style="stroke:#181818;stroke-width:1.0;"/><rect fill="#FFFFFF" height="10" style="stroke:#181818;stroke-width:1.5;" width="10" x="710.5" y="237.82"/></g><!--SRC=[fP9HReCm343_SmfF_Kwu0E88kq0rJG5S6XLY50ox_WA1h13MZqtAH_Jil5YscNfWWfAOgOFQEApOa1LlVCSEWGqxNJqqt9mFAvKz7I7cP6sR5i4YVv5xmAKrpPqRXsZX2WBWFGJyBJV5PbDhUfwPGdmyU-9_r_b56L_aMLaS71LPriQYIoqz3NCDmz4Yjq2gYw5NNeUrIQKBFJ4kFDKDJ4ut2DFdlygSg1qxdAK0U-rVglpTjjsElfMV6DV82oTtVUBpxCJbQUAv6JyAjDEwR6KxXkfKvg7g7TLZs66V6_TIohXRExZrSmUNdWWHbr7AoqydZjYNA4GSPM3H6cOHOB1-0m00]--></g></svg>