<?xml version="1.0" encoding="us-ascii" standalone="no"?><svg xmlns="http://www.w3.org/2000/svg" xmlns:xlink="http://www.w3.org/1999/xlink" contentStyleType="text/css" height="1140px" preserveAspectRatio="none" style="width:842px;height:1140px;background:#FFFFFF;" version="1.1" viewBox="0 0 842 1140" width="842px" zoomAndPan="magnify"><defs><filter height="300%" id="f1dseyd93cmidv" width="300%" x="-1" y="-1"><feGaussianBlur result="blurOut" stdDeviation="2.0"/><feColorMatrix in="blurOut" result="blurOut2" type="matrix" values="0 0 0 0 0 0 0 0 0 0 0 0 0 0 0 0 0 0 .4 0"/><feOffset dx="4.0" dy="4.0" in="blurOut2" result="blurOut3"/><feBlend in="SourceGraphic" in2="blurOut3" mode="normal"/></filter></defs><g><!--class CrossReference--><g id="elem_CrossReference"><rect codeLine="5" fill="#FFF1D9" filter="url(#f1dseyd93cmidv)" height="86.1358" id="CrossReference" rx="5" ry="5" style="stroke:#181818;stroke-width:0.5;" width="137" x="618.5" y="193.93"/><rect fill="#FFD080" height="32" rx="5" ry="5" style="stroke:#FFD080;stroke-width:0.5;" width="137" x="618.5" y="193.93"/><rect fill="#FFD080" height="5" style="stroke:#FFD080;stroke-width:0.5;" width="137" x="618.5" y="220.93"/><rect codeLine="5" fill="none" height="86.1358" id="CrossReference" rx="5" ry="5" style="stroke:#181818;stroke-width:0.5;" width="137" x="618.5" y="193.93"/><ellipse cx="633.5" cy="209.93" fill="#ADD1B2" rx="11" ry="11" style="stroke:#181818;stroke-width:1.0;"/><path d="M633.6094,205.4612 Q632.6875,205.4612 631.9531,205.7737 Q631.2344,206.0862 630.7344,206.68 Q630.2344,207.2581 629.9531,208.1331 Q629.6875,209.0081 629.6875,210.1019 Q629.6875,211.5394 630.125,212.5862 Q630.5781,213.6331 631.4219,214.18 Q632.2813,214.7269 633.5938,214.7269 Q634.375,214.7269 635.0625,214.6019 Q635.7656,214.4612 636.7656,214.1487 L636.7656,216.0237 Q635.9063,216.3519 635.1406,216.4769 Q634.3906,216.6019 633.375,216.6019 Q631.4531,216.6019 630.1406,215.805 Q628.8438,214.9925 628.1875,213.5237 Q627.5313,212.0394 627.5313,210.0706 Q627.5313,208.6487 627.9219,207.4769 Q628.3281,206.2894 629.1094,205.4144 Q629.8906,204.5394 631.0313,204.0706 Q632.1719,203.5862 633.6406,203.5862 Q634.5938,203.5862 635.4844,203.7894 Q636.3906,203.9769 637.3281,204.4456 L636.5,206.2269 Q635.7188,205.8519 635.0625,205.6644 Q634.4063,205.4612 633.6094,205.4612 Z " fill="#000000"/><text fill="#000000" font-family="sans-serif" font-size="14" lengthAdjust="spacing" textLength="105" x="647.5" y="215.362">CrossReference</text><line style="stroke:#181818;stroke-width:0.5;" x1="619.5" x2="754.5" y1="225.93" y2="225.93"/><text fill="#000000" font-family="sans-serif" font-size="14" lengthAdjust="spacing" textLength="110" x="624.5" y="244.8959">identifier: string</text><text fill="#000000" font-family="sans-serif" font-size="14" lengthAdjust="spacing" textLength="97" x="624.5" y="263.9639">subject: string</text><line style="stroke:#181818;stroke-width:0.5;" x1="619.5" x2="754.5" y1="272.0658" y2="272.0658"/></g><!--class DayType--><g id="elem_DayType"><rect codeLine="10" fill="#FFF1D9" filter="url(#f1dseyd93cmidv)" height="86.1358" id="DayType" rx="5" ry="5" style="stroke:#181818;stroke-width:0.5;" width="136" x="7" y="194"/><rect fill="#FFD080" height="32" rx="5" ry="5" style="stroke:#FFD080;stroke-width:0.5;" width="136" x="7" y="194"/><rect fill="#FFD080" height="5" style="stroke:#FFD080;stroke-width:0.5;" width="136" x="7" y="221"/><rect codeLine="10" fill="none" height="86.1358" id="DayType" rx="5" ry="5" style="stroke:#181818;stroke-width:0.5;" width="136" x="7" y="194"/><ellipse cx="43.15" cy="210" fill="#ADD1B2" rx="11" ry="11" style="stroke:#181818;stroke-width:1.0;"/><path d="M43.2594,205.5313 Q42.3375,205.5313 41.6031,205.8438 Q40.8844,206.1563 40.3844,206.75 Q39.8844,207.3281 39.6031,208.2031 Q39.3375,209.0781 39.3375,210.1719 Q39.3375,211.6094 39.775,212.6563 Q40.2281,213.7031 41.0719,214.25 Q41.9313,214.7969 43.2438,214.7969 Q44.025,214.7969 44.7125,214.6719 Q45.4156,214.5313 46.4156,214.2188 L46.4156,216.0938 Q45.5563,216.4219 44.7906,216.5469 Q44.0406,216.6719 43.025,216.6719 Q41.1031,216.6719 39.7906,215.875 Q38.4938,215.0625 37.8375,213.5938 Q37.1813,212.1094 37.1813,210.1406 Q37.1813,208.7188 37.5719,207.5469 Q37.9781,206.3594 38.7594,205.4844 Q39.5406,204.6094 40.6813,204.1406 Q41.8219,203.6563 43.2906,203.6563 Q44.2438,203.6563 45.1344,203.8594 Q46.0406,204.0469 46.9781,204.5156 L46.15,206.2969 Q45.3688,205.9219 44.7125,205.7344 Q44.0563,205.5313 43.2594,205.5313 Z " fill="#000000"/><text fill="#000000" font-family="sans-serif" font-size="14" lengthAdjust="spacing" textLength="57" x="61.85" y="215.432">DayType</text><line style="stroke:#181818;stroke-width:0.5;" x1="8" x2="142" y1="226" y2="226"/><text fill="#000000" font-family="sans-serif" font-size="14" lengthAdjust="spacing" textLength="95" x="13" y="244.9659">abbrev: string</text><text fill="#000000" font-family="sans-serif" font-size="14" lengthAdjust="spacing" textLength="124" x="13" y="264.0339">description: string</text><line style="stroke:#181818;stroke-width:0.5;" x1="8" x2="142" y1="272.1358" y2="272.1358"/></g><!--class List--><g id="elem_List"><rect codeLine="15" fill="#FFF1D9" filter="url(#f1dseyd93cmidv)" height="143.3396" id="List" rx="5" ry="5" style="stroke:#181818;stroke-width:0.5;" width="123" x="187.5" y="758"/><rect fill="#FFD080" height="32" rx="5" ry="5" style="stroke:#FFD080;stroke-width:0.5;" width="123" x="187.5" y="758"/><rect fill="#FFD080" height="5" style="stroke:#FFD080;stroke-width:0.5;" width="123" x="187.5" y="785"/><rect codeLine="15" fill="none" height="143.3396" id="List" rx="5" ry="5" style="stroke:#181818;stroke-width:0.5;" width="123" x="187.5" y="758"/><ellipse cx="233.25" cy="774" fill="#ADD1B2" rx="11" ry="11" style="stroke:#181818;stroke-width:1.0;"/><path d="M233.3594,769.5313 Q232.4375,769.5313 231.7031,769.8438 Q230.9844,770.1563 230.4844,770.75 Q229.9844,771.3281 229.7031,772.2031 Q229.4375,773.0781 229.4375,774.1719 Q229.4375,775.6094 229.875,776.6563 Q230.3281,777.7031 231.1719,778.25 Q232.0313,778.7969 233.3438,778.7969 Q234.125,778.7969 234.8125,778.6719 Q235.5156,778.5313 236.5156,778.2188 L236.5156,780.0938 Q235.6563,780.4219 234.8906,780.5469 Q234.1406,780.6719 233.125,780.6719 Q231.2031,780.6719 229.8906,779.875 Q228.5938,779.0625 227.9375,777.5938 Q227.2813,776.1094 227.2813,774.1406 Q227.2813,772.7188 227.6719,771.5469 Q228.0781,770.3594 228.8594,769.4844 Q229.6406,768.6094 230.7813,768.1406 Q231.9219,767.6563 233.3906,767.6563 Q234.3438,767.6563 235.2344,767.8594 Q236.1406,768.0469 237.0781,768.5156 L236.25,770.2969 Q235.4688,769.9219 234.8125,769.7344 Q234.1563,769.5313 233.3594,769.5313 Z " fill="#000000"/><text fill="#000000" font-family="sans-serif" font-size="14" lengthAdjust="spacing" textLength="23" x="253.75" y="779.432">List</text><line style="stroke:#181818;stroke-width:0.5;" x1="188.5" x2="309.5" y1="790" y2="790"/><text fill="#000000" font-family="sans-serif" font-size="14" lengthAdjust="spacing" textLength="86" x="193.5" y="808.9659">name: string</text><text fill="#000000" font-family="sans-serif" font-size="14" lengthAdjust="spacing" textLength="111" x="193.5" y="828.0339">position: integer</text><text fill="#000000" font-family="sans-serif" font-size="14" lengthAdjust="spacing" textLength="107" x="193.5" y="847.1018">valid_until: date</text><text fill="#000000" font-family="sans-serif" font-size="14" lengthAdjust="spacing" textLength="63" x="193.5" y="866.1697">&#171;user_id&#187;</text><text fill="#000000" font-family="sans-serif" font-size="14" lengthAdjust="spacing" textLength="89" x="193.5" y="885.2376">&#171;org_unit_id&#187;</text><line style="stroke:#181818;stroke-width:0.5;" x1="188.5" x2="309.5" y1="893.3396" y2="893.3396"/></g><!--class Note--><g id="elem_Note"><rect codeLine="23" fill="#FFF1D9" filter="url(#f1dseyd93cmidv)" height="124.2717" id="Note" rx="5" ry="5" style="stroke:#181818;stroke-width:0.5;" width="153" x="393.5" y="767.5"/><rect fill="#FFD080" height="32" rx="5" ry="5" style="stroke:#FFD080;stroke-width:0.5;" width="153" x="393.5" y="767.5"/><rect fill="#FFD080" height="5" style="stroke:#FFD080;stroke-width:0.5;" width="153" x="393.5" y="794.5"/><rect codeLine="23" fill="none" height="124.2717" id="Note" rx="5" ry="5" style="stroke:#181818;stroke-width:0.5;" width="153" x="393.5" y="767.5"/><ellipse cx="449.75" cy="783.5" fill="#ADD1B2" rx="11" ry="11" style="stroke:#181818;stroke-width:1.0;"/><path d="M449.8594,779.0313 Q448.9375,779.0313 448.2031,779.3438 Q447.4844,779.6563 446.9844,780.25 Q446.4844,780.8281 446.2031,781.7031 Q445.9375,782.5781 445.9375,783.6719 Q445.9375,785.1094 446.375,786.1563 Q446.8281,787.2031 447.6719,787.75 Q448.5313,788.2969 449.8438,788.2969 Q450.625,788.2969 451.3125,788.1719 Q452.0156,788.0313 453.0156,787.7188 L453.0156,789.5938 Q452.1563,789.9219 451.3906,790.0469 Q450.6406,790.1719 449.625,790.1719 Q447.7031,790.1719 446.3906,789.375 Q445.0938,788.5625 444.4375,787.0938 Q443.7813,785.6094 443.7813,783.6406 Q443.7813,782.2188 444.1719,781.0469 Q444.5781,779.8594 445.3594,778.9844 Q446.1406,778.1094 447.2813,777.6406 Q448.4219,777.1563 449.8906,777.1563 Q450.8438,777.1563 451.7344,777.3594 Q452.6406,777.5469 453.5781,778.0156 L452.75,779.7969 Q451.9688,779.4219 451.3125,779.2344 Q450.6563,779.0313 449.8594,779.0313 Z " fill="#000000"/><text fill="#000000" font-family="sans-serif" font-size="14" lengthAdjust="spacing" textLength="32" x="470.25" y="788.932">Note</text><line style="stroke:#181818;stroke-width:0.5;" x1="394.5" x2="545.5" y1="799.5" y2="799.5"/><text fill="#000000" font-family="sans-serif" font-size="14" lengthAdjust="spacing" textLength="68" x="399.5" y="818.4659">date: date</text><text fill="#000000" font-family="sans-serif" font-size="14" lengthAdjust="spacing" textLength="141" x="399.5" y="837.5339">description: rich_text</text><text fill="#000000" font-family="sans-serif" font-size="14" lengthAdjust="spacing" textLength="63" x="399.5" y="856.6018">&#171;user_id&#187;</text><text fill="#000000" font-family="sans-serif" font-size="14" lengthAdjust="spacing" textLength="60" x="399.5" y="875.6697">&#171;task_id&#187;</text><line style="stroke:#181818;stroke-width:0.5;" x1="394.5" x2="545.5" y1="883.7717" y2="883.7717"/></g><!--class OrgUnit--><g id="elem_OrgUnit"><rect codeLine="30" fill="#FFF1D9" filter="url(#f1dseyd93cmidv)" height="124.2717" id="OrgUnit" rx="5" ry="5" style="stroke:#181818;stroke-width:0.5;" width="128" x="475" y="1002"/><rect fill="#FFD080" height="32" rx="5" ry="5" style="stroke:#FFD080;stroke-width:0.5;" width="128" x="475" y="1002"/><rect fill="#FFD080" height="5" style="stroke:#FFD080;stroke-width:0.5;" width="128" x="475" y="1029"/><rect codeLine="30" fill="none" height="124.2717" id="OrgUnit" rx="5" ry="5" style="stroke:#181818;stroke-width:0.5;" width="128" x="475" y="1002"/><ellipse cx="508.9" cy="1018" fill="#ADD1B2" rx="11" ry="11" style="stroke:#181818;stroke-width:1.0;"/><path d="M509.0094,1013.5313 Q508.0875,1013.5313 507.3531,1013.8438 Q506.6344,1014.1563 506.1344,1014.75 Q505.6344,1015.3281 505.3531,1016.2031 Q505.0875,1017.0781 505.0875,1018.1719 Q505.0875,1019.6094 505.525,1020.6563 Q505.9781,1021.7031 506.8219,1022.25 Q507.6813,1022.7969 508.9938,1022.7969 Q509.775,1022.7969 510.4625,1022.6719 Q511.1656,1022.5313 512.1656,1022.2188 L512.1656,1024.0938 Q511.3063,1024.4219 510.5406,1024.5469 Q509.7906,1024.6719 508.775,1024.6719 Q506.8531,1024.6719 505.5406,1023.875 Q504.2438,1023.0625 503.5875,1021.5938 Q502.9313,1020.1094 502.9313,1018.1406 Q502.9313,1016.7188 503.3219,1015.5469 Q503.7281,1014.3594 504.5094,1013.4844 Q505.2906,1012.6094 506.4313,1012.1406 Q507.5719,1011.6563 509.0406,1011.6563 Q509.9938,1011.6563 510.8844,1011.8594 Q511.7906,1012.0469 512.7281,1012.5156 L511.9,1014.2969 Q511.1188,1013.9219 510.4625,1013.7344 Q509.8063,1013.5313 509.0094,1013.5313 Z " fill="#000000"/><text fill="#000000" font-family="sans-serif" font-size="14" lengthAdjust="spacing" textLength="54" x="527.1" y="1023.432">OrgUnit</text><line style="stroke:#181818;stroke-width:0.5;" x1="476" x2="602" y1="1034" y2="1034"/><text fill="#000000" font-family="sans-serif" font-size="14" lengthAdjust="spacing" textLength="86" x="481" y="1052.9659">name: string</text><text fill="#000000" font-family="sans-serif" font-size="14" lengthAdjust="spacing" textLength="105" x="481" y="1072.0339">ancestry: string</text><text fill="#000000" font-family="sans-serif" font-size="14" lengthAdjust="spacing" textLength="116" x="481" y="1091.1018">position: position</text><text fill="#000000" font-family="sans-serif" font-size="14" lengthAdjust="spacing" textLength="107" x="481" y="1110.1697">valid_until: date</text><line style="stroke:#181818;stroke-width:0.5;" x1="476" x2="602" y1="1118.2717" y2="1118.2717"/></g><!--class Reference--><g id="elem_Reference"><rect codeLine="44" fill="#FFF1D9" filter="url(#f1dseyd93cmidv)" height="86.1358" id="Reference" rx="5" ry="5" style="stroke:#181818;stroke-width:0.5;" width="100" x="531" y="7"/><rect fill="#FFD080" height="32" rx="5" ry="5" style="stroke:#FFD080;stroke-width:0.5;" width="100" x="531" y="7"/><rect fill="#FFD080" height="5" style="stroke:#FFD080;stroke-width:0.5;" width="100" x="531" y="34"/><rect codeLine="44" fill="none" height="86.1358" id="Reference" rx="5" ry="5" style="stroke:#181818;stroke-width:0.5;" width="100" x="531" y="7"/><ellipse cx="546" cy="23" fill="#ADD1B2" rx="11" ry="11" style="stroke:#181818;stroke-width:1.0;"/><path d="M546.1094,18.5313 Q545.1875,18.5313 544.4531,18.8438 Q543.7344,19.1563 543.2344,19.75 Q542.7344,20.3281 542.4531,21.2031 Q542.1875,22.0781 542.1875,23.1719 Q542.1875,24.6094 542.625,25.6563 Q543.0781,26.7031 543.9219,27.25 Q544.7813,27.7969 546.0938,27.7969 Q546.875,27.7969 547.5625,27.6719 Q548.2656,27.5313 549.2656,27.2188 L549.2656,29.0938 Q548.4063,29.4219 547.6406,29.5469 Q546.8906,29.6719 545.875,29.6719 Q543.9531,29.6719 542.6406,28.875 Q541.3438,28.0625 540.6875,26.5938 Q540.0313,25.1094 540.0313,23.1406 Q540.0313,21.7188 540.4219,20.5469 Q540.8281,19.3594 541.6094,18.4844 Q542.3906,17.6094 543.5313,17.1406 Q544.6719,16.6563 546.1406,16.6563 Q547.0938,16.6563 547.9844,16.8594 Q548.8906,17.0469 549.8281,17.5156 L549,19.2969 Q548.2188,18.9219 547.5625,18.7344 Q546.9063,18.5313 546.1094,18.5313 Z " fill="#000000"/><text fill="#000000" font-family="sans-serif" font-size="14" lengthAdjust="spacing" textLength="68" x="560" y="28.432">Reference</text><line style="stroke:#181818;stroke-width:0.5;" x1="532" x2="630" y1="39" y2="39"/><text fill="#000000" font-family="sans-serif" font-size="14" lengthAdjust="spacing" textLength="86" x="537" y="57.9659">name: string</text><text fill="#000000" font-family="sans-serif" font-size="14" lengthAdjust="spacing" textLength="67" x="537" y="77.0339">url: string</text><line style="stroke:#181818;stroke-width:0.5;" x1="532" x2="630" y1="85.1358" y2="85.1358"/></g><!--class State--><g id="elem_State"><rect codeLine="49" fill="#FFF1D9" filter="url(#f1dseyd93cmidv)" height="105.2038" id="State" rx="5" ry="5" style="stroke:#181818;stroke-width:0.5;" width="123" x="629.5" y="777"/><rect fill="#FFD080" height="32" rx="5" ry="5" style="stroke:#FFD080;stroke-width:0.5;" width="123" x="629.5" y="777"/><rect fill="#FFD080" height="5" style="stroke:#FFD080;stroke-width:0.5;" width="123" x="629.5" y="804"/><rect codeLine="49" fill="none" height="105.2038" id="State" rx="5" ry="5" style="stroke:#181818;stroke-width:0.5;" width="123" x="629.5" y="777"/><ellipse cx="670.15" cy="793" fill="#ADD1B2" rx="11" ry="11" style="stroke:#181818;stroke-width:1.0;"/><path d="M670.2594,788.5313 Q669.3375,788.5313 668.6031,788.8438 Q667.8844,789.1563 667.3844,789.75 Q666.8844,790.3281 666.6031,791.2031 Q666.3375,792.0781 666.3375,793.1719 Q666.3375,794.6094 666.775,795.6563 Q667.2281,796.7031 668.0719,797.25 Q668.9313,797.7969 670.2438,797.7969 Q671.025,797.7969 671.7125,797.6719 Q672.4156,797.5313 673.4156,797.2188 L673.4156,799.0938 Q672.5563,799.4219 671.7906,799.5469 Q671.0406,799.6719 670.025,799.6719 Q668.1031,799.6719 666.7906,798.875 Q665.4938,798.0625 664.8375,796.5938 Q664.1813,795.1094 664.1813,793.1406 Q664.1813,791.7188 664.5719,790.5469 Q664.9781,789.3594 665.7594,788.4844 Q666.5406,787.6094 667.6813,787.1406 Q668.8219,786.6563 670.2906,786.6563 Q671.2438,786.6563 672.1344,786.8594 Q673.0406,787.0469 673.9781,787.5156 L673.15,789.2969 Q672.3688,788.9219 671.7125,788.7344 Q671.0563,788.5313 670.2594,788.5313 Z " fill="#000000"/><text fill="#000000" font-family="sans-serif" font-size="14" lengthAdjust="spacing" textLength="34" x="689.85" y="798.432">State</text><line style="stroke:#181818;stroke-width:0.5;" x1="630.5" x2="751.5" y1="809" y2="809"/><text fill="#000000" font-family="sans-serif" font-size="14" lengthAdjust="spacing" textLength="86" x="635.5" y="827.9659">name: string</text><text fill="#000000" font-family="sans-serif" font-size="14" lengthAdjust="spacing" textLength="81" x="635.5" y="847.0339">state: string</text><text fill="#000000" font-family="sans-serif" font-size="14" lengthAdjust="spacing" textLength="111" x="635.5" y="866.1018">position: integer</text><line style="stroke:#181818;stroke-width:0.5;" x1="630.5" x2="751.5" y1="874.2038" y2="874.2038"/></g><!--class Task--><g id="elem_Task"><rect codeLine="55" fill="#FFF1D9" filter="url(#f1dseyd93cmidv)" height="276.815" id="Task" rx="5" ry="5" style="stroke:#181818;stroke-width:0.5;" width="153" x="504.5" y="381"/><rect fill="#FFD080" height="32" rx="5" ry="5" style="stroke:#FFD080;stroke-width:0.5;" width="153" x="504.5" y="381"/><rect fill="#FFD080" height="5" style="stroke:#FFD080;stroke-width:0.5;" width="153" x="504.5" y="408"/><rect codeLine="55" fill="none" height="276.815" id="Task" rx="5" ry="5" style="stroke:#181818;stroke-width:0.5;" width="153" x="504.5" y="381"/><ellipse cx="561.75" cy="397" fill="#ADD1B2" rx="11" ry="11" style="stroke:#181818;stroke-width:1.0;"/><path d="M561.8594,392.5313 Q560.9375,392.5313 560.2031,392.8438 Q559.4844,393.1563 558.9844,393.75 Q558.4844,394.3281 558.2031,395.2031 Q557.9375,396.0781 557.9375,397.1719 Q557.9375,398.6094 558.375,399.6563 Q558.8281,400.7031 559.6719,401.25 Q560.5313,401.7969 561.8438,401.7969 Q562.625,401.7969 563.3125,401.6719 Q564.0156,401.5313 565.0156,401.2188 L565.0156,403.0938 Q564.1563,403.4219 563.3906,403.5469 Q562.6406,403.6719 561.625,403.6719 Q559.7031,403.6719 558.3906,402.875 Q557.0938,402.0625 556.4375,400.5938 Q555.7813,399.1094 555.7813,397.1406 Q555.7813,395.7188 556.1719,394.5469 Q556.5781,393.3594 557.3594,392.4844 Q558.1406,391.6094 559.2813,391.1406 Q560.4219,390.6563 561.8906,390.6563 Q562.8438,390.6563 563.7344,390.8594 Q564.6406,391.0469 565.5781,391.5156 L564.75,393.2969 Q563.9688,392.9219 563.3125,392.7344 Q562.6563,392.5313 561.8594,392.5313 Z " fill="#000000"/><text fill="#000000" font-family="sans-serif" font-size="14" lengthAdjust="spacing" textLength="30" x="582.25" y="402.432">Task</text><line style="stroke:#181818;stroke-width:0.5;" x1="505.5" x2="656.5" y1="413" y2="413"/><text fill="#000000" font-family="sans-serif" font-size="14" lengthAdjust="spacing" textLength="97" x="510.5" y="431.9659">subject: string</text><text fill="#000000" font-family="sans-serif" font-size="14" lengthAdjust="spacing" textLength="69" x="510.5" y="451.0339">start: date</text><text fill="#000000" font-family="sans-serif" font-size="14" lengthAdjust="spacing" textLength="97" x="510.5" y="470.1018">deadline: date</text><text fill="#000000" font-family="sans-serif" font-size="14" lengthAdjust="spacing" textLength="129" x="510.5" y="489.1697">resubmission: date</text><text fill="#000000" font-family="sans-serif" font-size="14" lengthAdjust="spacing" textLength="97" x="510.5" y="508.2376">priority: string</text><text fill="#000000" font-family="sans-serif" font-size="14" lengthAdjust="spacing" textLength="109" x="510.5" y="527.3055">private: boolean</text><text fill="#000000" font-family="sans-serif" font-size="14" lengthAdjust="spacing" textLength="141" x="510.5" y="546.3734">description: rich_text</text><text fill="#000000" font-family="sans-serif" font-size="14" lengthAdjust="spacing" textLength="112" x="510.5" y="565.4414">&#171;responsible_id&#187;</text><text fill="#000000" font-family="sans-serif" font-size="14" lengthAdjust="spacing" textLength="63" x="510.5" y="584.5093">&#171;user_id&#187;</text><text fill="#000000" font-family="sans-serif" font-size="14" lengthAdjust="spacing" textLength="66" x="510.5" y="603.5772">&#171;state_id&#187;</text><text fill="#000000" font-family="sans-serif" font-size="14" lengthAdjust="spacing" textLength="89" x="510.5" y="622.6451">&#171;org_unit_id&#187;</text><text fill="#000000" font-family="sans-serif" font-size="14" lengthAdjust="spacing" textLength="53" x="510.5" y="641.713">&#171;list_id&#187;</text><line style="stroke:#181818;stroke-width:0.5;" x1="505.5" x2="656.5" y1="649.815" y2="649.815"/></g><!--class TimeAccounting--><g id="elem_TimeAccounting"><rect codeLine="70" fill="#FFF1D9" filter="url(#f1dseyd93cmidv)" height="143.3396" id="TimeAccounting" rx="5" ry="5" style="stroke:#181818;stroke-width:0.5;" width="141" x="304.5" y="447.33"/><rect fill="#FFD080" height="32" rx="5" ry="5" style="stroke:#FFD080;stroke-width:0.5;" width="141" x="304.5" y="447.33"/><rect fill="#FFD080" height="5" style="stroke:#FFD080;stroke-width:0.5;" width="141" x="304.5" y="474.33"/><rect codeLine="70" fill="none" height="143.3396" id="TimeAccounting" rx="5" ry="5" style="stroke:#181818;stroke-width:0.5;" width="141" x="304.5" y="447.33"/><ellipse cx="319.5" cy="463.33" fill="#ADD1B2" rx="11" ry="11" style="stroke:#181818;stroke-width:1.0;"/><path d="M319.6094,458.8613 Q318.6875,458.8613 317.9531,459.1738 Q317.2344,459.4863 316.7344,460.08 Q316.2344,460.6581 315.9531,461.5331 Q315.6875,462.4081 315.6875,463.5019 Q315.6875,464.9394 316.125,465.9863 Q316.5781,467.0331 317.4219,467.58 Q318.2813,468.1269 319.5938,468.1269 Q320.375,468.1269 321.0625,468.0019 Q321.7656,467.8613 322.7656,467.5488 L322.7656,469.4238 Q321.9063,469.7519 321.1406,469.8769 Q320.3906,470.0019 319.375,470.0019 Q317.4531,470.0019 316.1406,469.205 Q314.8438,468.3925 314.1875,466.9238 Q313.5313,465.4394 313.5313,463.4706 Q313.5313,462.0488 313.9219,460.8769 Q314.3281,459.6894 315.1094,458.8144 Q315.8906,457.9394 317.0313,457.4706 Q318.1719,456.9863 319.6406,456.9863 Q320.5938,456.9863 321.4844,457.1894 Q322.3906,457.3769 323.3281,457.8456 L322.5,459.6269 Q321.7188,459.2519 321.0625,459.0644 Q320.4063,458.8613 319.6094,458.8613 Z " fill="#000000"/><text fill="#000000" font-family="sans-serif" font-size="14" lengthAdjust="spacing" textLength="109" x="333.5" y="468.762">TimeAccounting</text><line style="stroke:#181818;stroke-width:0.5;" x1="305.5" x2="444.5" y1="479.33" y2="479.33"/><text fill="#000000" font-family="sans-serif" font-size="14" lengthAdjust="spacing" textLength="128" x="310.5" y="498.2959">description:i string</text><text fill="#000000" font-family="sans-serif" font-size="14" lengthAdjust="spacing" textLength="68" x="310.5" y="517.3639">date: date</text><text fill="#000000" font-family="sans-serif" font-size="14" lengthAdjust="spacing" textLength="115" x="310.5" y="536.4318">duration: integer</text><text fill="#000000" font-family="sans-serif" font-size="14" lengthAdjust="spacing" textLength="60" x="310.5" y="555.4997">&#171;task_id&#187;</text><text fill="#000000" font-family="sans-serif" font-size="14" lengthAdjust="spacing" textLength="63" x="310.5" y="574.5676">&#171;user_id&#187;</text><line style="stroke:#181818;stroke-width:0.5;" x1="305.5" x2="444.5" y1="582.6696" y2="582.6696"/></g><!--class Workday--><g id="elem_Workday"><rect codeLine="78" fill="#FFF1D9" filter="url(#f1dseyd93cmidv)" height="162.4075" id="Workday" rx="5" ry="5" style="stroke:#181818;stroke-width:0.5;" width="123" x="13.5" y="438"/><rect fill="#FFD080" height="32" rx="5" ry="5" style="stroke:#FFD080;stroke-width:0.5;" width="123" x="13.5" y="438"/><rect fill="#FFD080" height="5" style="stroke:#FFD080;stroke-width:0.5;" width="123" x="13.5" y="465"/><rect codeLine="78" fill="none" height="162.4075" id="Workday" rx="5" ry="5" style="stroke:#181818;stroke-width:0.5;" width="123" x="13.5" y="438"/><ellipse cx="43.35" cy="454" fill="#ADD1B2" rx="11" ry="11" style="stroke:#181818;stroke-width:1.0;"/><path d="M43.4594,449.5313 Q42.5375,449.5313 41.8031,449.8438 Q41.0844,450.1563 40.5844,450.75 Q40.0844,451.3281 39.8031,452.2031 Q39.5375,453.0781 39.5375,454.1719 Q39.5375,455.6094 39.975,456.6563 Q40.4281,457.7031 41.2719,458.25 Q42.1313,458.7969 43.4438,458.7969 Q44.225,458.7969 44.9125,458.6719 Q45.6156,458.5313 46.6156,458.2188 L46.6156,460.0938 Q45.7563,460.4219 44.9906,460.5469 Q44.2406,460.6719 43.225,460.6719 Q41.3031,460.6719 39.9906,459.875 Q38.6938,459.0625 38.0375,457.5938 Q37.3813,456.1094 37.3813,454.1406 Q37.3813,452.7188 37.7719,451.5469 Q38.1781,450.3594 38.9594,449.4844 Q39.7406,448.6094 40.8813,448.1406 Q42.0219,447.6563 43.4906,447.6563 Q44.4438,447.6563 45.3344,447.8594 Q46.2406,448.0469 47.1781,448.5156 L46.35,450.2969 Q45.5688,449.9219 44.9125,449.7344 Q44.2563,449.5313 43.4594,449.5313 Z " fill="#000000"/><text fill="#000000" font-family="sans-serif" font-size="14" lengthAdjust="spacing" textLength="58" x="60.65" y="459.432">Workday</text><line style="stroke:#181818;stroke-width:0.5;" x1="14.5" x2="135.5" y1="470" y2="470"/><text fill="#000000" font-family="sans-serif" font-size="14" lengthAdjust="spacing" textLength="68" x="19.5" y="488.9659">date: date</text><text fill="#000000" font-family="sans-serif" font-size="14" lengthAdjust="spacing" textLength="107" x="19.5" y="508.0339">work_start: time</text><text fill="#000000" font-family="sans-serif" font-size="14" lengthAdjust="spacing" textLength="98" x="19.5" y="527.1018">pause: integer</text><text fill="#000000" font-family="sans-serif" font-size="14" lengthAdjust="spacing" textLength="111" x="19.5" y="546.1697">comment: string</text><text fill="#000000" font-family="sans-serif" font-size="14" lengthAdjust="spacing" textLength="63" x="19.5" y="565.2376">&#171;user_id&#187;</text><text fill="#000000" font-family="sans-serif" font-size="14" lengthAdjust="spacing" textLength="92" x="19.5" y="584.3055">&#171;day_type_id&#187;</text><line style="stroke:#181818;stroke-width:0.5;" x1="14.5" x2="135.5" y1="592.4075" y2="592.4075"/></g><ellipse cx="581" cy="237" fill="#181818" rx="2" ry="2" style="stroke:#181818;stroke-width:1.0;"/><!--link DayType to Workday--><g id="link_DayType_Workday"><path codeLine="87" d="M75,279.92 C75,321.57 75,386.49 75,438.03 " fill="none" id="DayType-Workday" style="stroke:#181818;stroke-width:1.0;"/><text fill="#000000" font-family="sans-serif" font-size="13" lengthAdjust="spacing" textLength="7" x="65.4188" y="302.412">1</text><text fill="#000000" font-family="sans-serif" font-size="13" lengthAdjust="spacing" textLength="7" x="67.6555" y="426.1345">*</text></g><!--link Task to State--><g id="link_Task_State"><path codeLine="88" d="M629.73,656.66 C645.01,699.53 660.96,744.24 672.74,777.3 " fill="none" id="Task-State" style="stroke:#181818;stroke-width:1.0;"/><text fill="#000000" font-family="sans-serif" font-size="13" lengthAdjust="spacing" textLength="7" x="632.0587" y="680.185">*</text><text fill="#000000" font-family="sans-serif" font-size="13" lengthAdjust="spacing" textLength="7" x="662.544" y="765.3186">1</text></g><!--link Task to List--><g id="link_Task_List"><path codeLine="89" d="M504.56,634.03 C491.68,649.42 477.68,664.27 463,677 C420.47,713.88 398.08,705.67 352,738 C337.97,747.84 323.68,759.31 310.4,770.7 " fill="none" id="Task-List" style="stroke:#181818;stroke-width:1.0;"/><text fill="#000000" font-family="sans-serif" font-size="13" lengthAdjust="spacing" textLength="7" x="489.3162" y="641.9073">*</text><text fill="#000000" font-family="sans-serif" font-size="13" lengthAdjust="spacing" textLength="7" x="318.2369" y="750.3983">1</text></g><!--link Task to Note--><g id="link_Task_Note"><path codeLine="90" d="M531.83,656.66 C517.85,695.5 503.34,735.85 491.88,767.68 " fill="none" id="Task-Note" style="stroke:#181818;stroke-width:1.0;"/><text fill="#000000" font-family="sans-serif" font-size="13" lengthAdjust="spacing" textLength="7" x="513.9668" y="680.185">1</text><text fill="#000000" font-family="sans-serif" font-size="13" lengthAdjust="spacing" textLength="7" x="487.2349" y="755.5951">*</text></g><!--link Reference to apoint17--><g id="link_Reference_apoint17"><path d="M581,92.98 C581,143.72 581,223.73 581,234.73 " fill="none" id="Reference-apoint17" style="stroke:#181818;stroke-width:1.0;"/><text fill="#000000" font-family="sans-serif" font-size="13" lengthAdjust="spacing" textLength="7" x="571.5063" y="114.6471">*</text></g><!--link apoint17 to Task--><g id="link_apoint17_Task"><path d="M581,239.25 C581,249.09 581,315.54 581,381.08 " fill="none" id="apoint17-Task" style="stroke:#181818;stroke-width:1.0;"/><text fill="#000000" font-family="sans-serif" font-size="13" lengthAdjust="spacing" textLength="7" x="573.7867" y="369.0512">1</text></g><!--link apoint17 to CrossReference--><g id="link_apoint17_CrossReference"><path d="M583.48,237 C595.08,237 606.67,237 618.26,237 " fill="none" id="apoint17-CrossReference" style="stroke:#181818;stroke-width:1.0;stroke-dasharray:7.0,7.0;"/></g><!--link Workday to TimeAccounting--><g id="link_Workday_TimeAccounting"><path codeLine="95" d="M136.39,505.8 C149.86,503.39 164.11,501.24 177.5,500 C226.18,495.48 238.9,494.72 287.5,500 C293,500.6 298.67,501.4 304.34,502.34 " fill="none" id="Workday-TimeAccounting" style="stroke:#181818;stroke-width:1.0;"/><text fill="#000000" font-family="sans-serif" font-size="13" lengthAdjust="spacing" textLength="108" x="178.5" y="456.217">virtual association</text><text fill="#000000" font-family="sans-serif" font-size="13" lengthAdjust="spacing" textLength="85" x="190" y="473.923">based on date</text><text fill="#000000" font-family="sans-serif" font-size="13" lengthAdjust="spacing" textLength="53" x="206" y="491.629">+ user_id</text></g><!--link List to OrgUnit--><g id="link_List_OrgUnit"><path codeLine="96" d="M310.48,885.78 C324,897.59 338.36,909.85 352,921 C392.24,953.89 438.79,989.24 475.37,1016.44 " fill="none" id="List-OrgUnit" style="stroke:#181818;stroke-width:1.0;"/><text fill="#000000" font-family="sans-serif" font-size="13" lengthAdjust="spacing" textLength="7" x="318.3374" y="894.9676">*</text><text fill="#000000" font-family="sans-serif" font-size="13" lengthAdjust="spacing" textLength="7" x="460.1885" y="1006.5312">1</text></g><!--link TimeAccounting to Task--><g id="link_TimeAccounting_Task"><path codeLine="98" d="M445.92,519 C464.84,519 485.39,519 504.59,519 " fill="none" id="TimeAccounting-Task" style="stroke:#181818;stroke-width:1.0;"/><text fill="#000000" font-family="sans-serif" font-size="13" lengthAdjust="spacing" textLength="7" x="453.5946" y="515.0569">*</text><text fill="#000000" font-family="sans-serif" font-size="13" lengthAdjust="spacing" textLength="7" x="489.3493" y="515.0148">1</text></g><!--link OrgUnit to Task--><g id="link_OrgUnit_Task"><path codeLine="99" d="M602.93,1047.38 C664.14,1028.65 753.05,990.68 794,921 C835.21,850.88 824.69,813.32 794,738 C766.45,670.38 706.71,612.31 657.48,573.15 " fill="none" id="OrgUnit-Task" style="stroke:#181818;stroke-width:1.0;"/><text fill="#000000" font-family="sans-serif" font-size="13" lengthAdjust="spacing" textLength="7" x="610.6598" y="1038.2069">1</text><text fill="#000000" font-family="sans-serif" font-size="13" lengthAdjust="spacing" textLength="7" x="665.5321" y="579.4511">*</text></g><!--SRC=[ZLHDZzCm4BtxLvXUobTtnRLQhOJWY422hhYi53d9D3lKiQFnf50X_ZkEcxYEgopqr3pxpSURvtd1Jz22P6HIrK79FTbMtWWXAgsSan_8ElSLza1WAf3ojv3-XpKOnZq2RQLZGjC4sFNb3wWuOd-cA1_LQNVg8bsL9S5nHgt1LOGTepNNz4_eUE8QrSACsLc7PneQXWOee4UbiIvwNwNUoben1FJkhdT01TRtz-EtfSRVGZvZCUDdox7QWPt4c5LAM3qL3Bzu8JmhTyX2Vw7cmITSx4TvdVtdQQ79wTz2bpxDxNhC5CVsG7enNKyw4NnzAtBoVp97sZTMl4nn7BHyTdenrCvhDqNAdJK68vuDHjKQJJeh0aziqRcG8S8TeINaJ6B2OwYkj5Q3ClyUje_UMUEmr93EFFT0Q7hPSsTCUujdHjbX2- -hoWxZDKrqOr8HpbvGPjEUrFMpI1sPLniJVxTqgDLfmVy__ManQi- -nBDuoiUPfwfis_ejCTFuMXoVfs2_6c89qwfOlLl9pKQkNg-cUaGmn00Ck3yENhj2XsKnWfSGmtiMukBfvFvmLRoCHsy3y4hUPAjFY4cMJJQPhJmYSQ-qzEBP2eFiZwPK3cffJL3kqRoHO-iYRBEaW74XYFNilIONBZLabWXtBarCcoNfE-1_0G00]--></g></svg>